<svg width="70" height="80" viewBox="0 0 70 80" fill="none" xmlns="http://www.w3.org/2000/svg">
<g id="Investment">
<path id="Vector" d="M10.8335 43.4594C10.7524 42.0978 9.76944 41.0153 8.55974 41.0153H3.29339C2.02941 41.0153 1 42.191 1 43.6363V65.6706C1 67.1152 2.02941 68.2909 3.29339 68.2909H8.55974C9.49097 68.2909 10.2907 67.649 10.648 66.7337L28.5354 77.1542C33.1231 79.8338 38.6673 80.2457 43.7273 77.8336C50.5914 74.5707 62.7714 68.5697 67.2322 65.0326C69.6958 63.0872 70.3579 59.1794 68.7093 56.3209C68.7066 56.3171 68.7039 56.3133 68.7026 56.3094C68.6945 56.2949 68.6852 56.2796 68.6771 56.265C67.3944 54.0767 64.7404 53.1132 62.4122 53.9856C61.2341 54.4303 58.7659 55.3574 56.0783 56.3381C60.796 52.2148 63.707 45.7622 63.707 38.6754C63.707 32.1113 61.1947 25.9706 56.8888 21.7691C57.0152 21.6497 57.1473 21.5386 57.2624 21.4036C58.1525 20.365 58.6417 19.0055 58.6417 17.5771C58.6417 14.593 56.5185 12.165 53.9075 12.165H53.8233L55.3819 7.07918C55.6701 6.13402 55.5494 5.13525 55.0548 4.34022C54.5455 3.52373 53.7225 3.03584 52.8499 3.03584C52.0966 3.03584 51.3956 3.39583 51.0069 4.07214L50.7804 3.48085C50.2281 1.97349 48.9481 1 47.5206 1C46.3946 1 45.3478 1.60891 44.6816 2.64063C44.6347 2.70038 44.5918 2.76394 44.553 2.83211C44.3479 3.18673 44.0476 3.23959 43.8868 3.23959C43.6174 3.23959 43.3694 3.08717 43.2233 2.83288C42.5652 1.68935 41.458 1.0069 40.2637 1.0069C38.8362 1.0069 37.5589 1.9781 37.0267 3.43031L36.9074 4.05914C35.7828 2.62838 33.6624 2.81449 32.7174 4.34253C32.2215 5.13986 32.1035 6.1394 32.3944 7.0838L33.9691 12.2251C31.4261 12.5502 29.7632 14.9552 29.7632 17.5771C29.7632 19.2752 30.4451 20.7862 31.5072 21.7816C27.2157 25.9852 24.7127 32.1205 24.7127 38.6754C24.7127 40.2947 24.8774 41.8913 25.1765 43.4525C23.7099 43.4532 30.4892 43.4499 10.8335 43.4594ZM8.10401 65.1536H3.7451V44.1525H8.10401V65.1536ZM63.27 56.9658C64.4402 56.5277 65.7873 56.9712 66.3958 58.0113L66.3971 58.0128C66.4038 58.0251 66.4105 58.0366 66.4172 58.0488C67.251 59.4934 66.9172 61.4687 65.6693 62.4529C61.4163 65.8261 49.436 71.7222 42.6724 74.9376C38.5574 76.8984 33.7629 76.6839 29.7833 74.3593L10.8505 63.3299V46.5966H25.2073C31.2903 46.5966 30.6917 53.8791 38.2344 53.8791H45.9926C47.2681 53.896 48.455 54.8963 48.6921 56.3143C48.9425 58.1117 47.7034 59.6573 46.2043 59.6573H28.2338C27.4752 59.6573 26.8613 60.3596 26.8613 61.2259C26.8613 62.0922 27.4752 62.7945 28.2338 62.7945H46.2043C47.8723 62.7945 61.5619 57.6108 63.27 56.9658ZM36.8324 7.19252C37.9301 7.19252 38.8993 6.44038 39.2732 5.35504L39.5386 4.69327C39.7263 4.18315 40.1404 4.14409 40.2638 4.14409C40.4233 4.14409 40.7222 4.19771 40.9299 4.55693C41.5854 5.69663 42.6912 6.37678 43.8868 6.37678C45.0127 6.37678 46.0582 5.77476 46.7244 4.75454C46.7753 4.69096 46.8209 4.62356 46.8624 4.55081C47.0675 4.19082 47.3624 4.13721 47.5206 4.13721C47.6439 4.13721 48.0607 4.1778 48.2564 4.71319L48.483 5.30756C48.9012 6.44114 49.8649 7.17413 50.9372 7.17413C51.5846 7.17413 52.2038 6.90146 52.673 6.42736L50.9158 12.1649H36.8592L35.102 6.42811C35.5845 6.91755 36.1984 7.19252 36.8324 7.19252ZM33.1061 15.9594C33.927 15.0022 34.9449 15.3931 35.8847 15.3022C40.7819 15.3022 49.6992 15.3022 53.9075 15.3022C55.0039 15.3022 55.8966 16.3224 55.8966 17.577C55.8966 18.6713 55.1978 19.7467 54.0335 19.8649L34.5122 19.8672L34.3285 19.8587C33.2911 19.7454 32.5083 18.7642 32.5083 17.577C32.5083 16.965 32.7134 16.3998 33.1061 15.9594ZM34.6006 23.0044H53.8069C58.2959 26.5851 60.9619 32.407 60.9619 38.6754C60.9619 46.1432 57.2088 52.8045 51.4291 55.9394C51.0556 53.0885 48.9121 50.7418 46.2043 50.7418H45.9926C45.9817 50.7417 45.9713 50.738 45.9604 50.738H38.2317C36.6348 50.738 35.142 50.0973 33.9589 49.0277C33.9384 49.0088 33.916 48.9933 33.8956 48.9742C32.6211 47.7929 31.6246 45.1538 28.1011 43.9465C27.6736 42.2423 27.4577 40.4738 27.4577 38.6754C27.4578 32.4093 30.1198 26.5882 34.6006 23.0044Z" fill="#210CC6"/>
<path id="Vector_2" d="M43.6667 50.6667C50.0991 50.6667 55.332 44.6855 55.332 37.3333C55.332 29.9812 50.0991 24 43.6667 24C37.2342 24 32 29.9812 32 37.3333C32 44.6855 37.2342 50.6667 43.6667 50.6667ZM43.6667 27.1373C48.5859 27.1373 52.5869 31.7114 52.5869 37.3333C52.5869 42.9553 48.5859 47.5294 43.6667 47.5294C38.7475 47.5294 34.7451 42.9553 34.7451 37.3333C34.7451 31.7114 38.7475 27.1373 43.6667 27.1373Z" fill="#BDC90C"/>
<path id="Vector_3" d="M41.2519 40.265C41.0439 40.1601 40.7783 40.1812 40.6058 40.3861C40.3357 40.709 40.4323 41.2323 40.8256 41.4201C41.7036 41.8559 42.6526 42.0987 43.6726 42.1492V43.3349C43.6726 43.5485 43.7948 43.6696 43.9648 43.6696C44.1368 43.6696 44.2704 43.5461 44.2704 43.3349V42.1492C45.9389 42.0417 47.3962 41.0163 47.3962 39.1858C47.3962 37.1533 45.978 36.5698 44.2704 36.1152V32.4977C44.9527 32.5077 45.6188 32.6448 46.2649 32.9083C46.6967 33.1035 47.0102 32.7421 47.0102 32.3453C47.0102 32.042 46.8855 31.839 46.6375 31.7379C45.911 31.4338 45.1216 31.2669 44.2704 31.2362V30.0659C44.2704 29.8614 44.1436 29.7159 43.9648 29.7159C43.7836 29.7159 43.6726 29.8648 43.6726 30.0659V31.2516C41.5948 31.3782 40.5469 32.756 40.5469 34.352C40.5469 36.3028 42.0517 36.8954 43.6726 37.3767V40.8579C42.7759 40.8272 41.9703 40.6296 41.2519 40.265ZM44.2704 37.5437C45.1146 37.7991 46.1992 38.1331 46.1992 39.0947C46.1992 40.1586 45.5558 40.7414 44.2704 40.8426V37.5437ZM41.7438 34.2456C41.7438 33.1372 42.7054 32.6299 43.6726 32.5284V35.9482C42.7485 35.6809 41.7438 35.3359 41.7438 34.2456Z" fill="#BDC90C"/>
</g>
</svg>
