<svg width="67" height="85" viewBox="0 0 67 85" fill="none" xmlns="http://www.w3.org/2000/svg">
<path d="M14.2957 48.7711C13.7264 50.6714 13.6127 52.6582 13.9623 54.6007C14.3119 56.5431 15.1167 58.3974 16.3239 60.0413C17.5311 61.6853 19.1132 63.0817 20.9663 64.1388C22.8194 65.1958 24.9013 65.8896 27.0753 66.1744V49.2905C23.4994 47.4504 19.2565 46.9499 15.2705 47.8982C15.0366 47.9541 14.8234 48.0643 14.6523 48.2175C14.4812 48.3708 14.3582 48.5617 14.2957 48.7711ZM51.7295 47.8982C47.7435 46.9501 43.5006 47.4505 39.9246 49.2905V66.1744C42.0986 65.8896 44.1806 65.1958 46.0336 64.1388C47.8867 63.0817 49.4689 61.6853 50.676 60.0413C51.8832 58.3974 52.6881 56.5431 53.0376 54.6007C53.3872 52.6582 53.2735 50.6714 52.7042 48.7711C52.6417 48.5617 52.5187 48.3708 52.3476 48.2175C52.1765 48.0643 51.9633 47.9541 51.7295 47.8982Z" fill="#BDC90C"/>
<path d="M59.1986 75.9454C59.0151 75.9454 58.8444 75.9454 58.6663 75.9618C58.0559 75.0514 57.192 74.2986 56.1591 73.777C55.1262 73.2554 53.9597 72.983 52.774 72.9865H52.7538C51.5123 71.7439 49.8594 70.8898 48.0368 70.549C46.2143 70.2083 44.3178 70.3988 42.6248 71.0928C40.9772 70.0661 39.1264 69.3297 37.1712 68.9229V47.456C34.7342 47.7431 32.2658 47.7431 29.8288 47.456V68.9229C27.8736 69.3297 26.0228 70.0661 24.3751 71.0928C22.6822 70.3988 20.7857 70.2083 18.9632 70.549C17.1406 70.8898 15.4877 71.7439 14.2462 72.9865C13.057 72.9799 11.8864 73.2508 10.8497 73.7725C9.81294 74.2942 8.94582 75.0488 8.3337 75.9618C8.15014 75.9503 7.97942 75.9454 7.80137 75.9454C5.73306 75.9476 3.75017 76.6843 2.28765 77.994C0.825137 79.3038 0.00242902 81.0795 0 82.9317C0 83.2587 0.145046 83.5723 0.40323 83.8035C0.661414 84.0347 1.01159 84.1646 1.37671 84.1646H65.6233C65.9884 84.1646 66.3386 84.0347 66.5968 83.8035C66.855 83.5723 67 83.2587 67 82.9317C66.9976 81.0795 66.1749 79.3038 64.7123 77.994C63.2498 76.6843 61.2669 75.9476 59.1986 75.9454ZM39.4658 17.6713C39.4648 16.6906 39.0293 15.7503 38.255 15.0569C37.4806 14.3635 36.4307 13.9735 35.3356 13.9726H31.2055V21.3699H35.3356C36.4307 21.369 37.4806 20.9791 38.255 20.2856C39.0293 19.5922 39.4648 18.6519 39.4658 17.6713Z" fill="#210CC6"/>
<path d="M58.2396 22.6028C58.2396 34.7398 47.1947 44.7056 33.4999 44.7056C19.8051 44.7056 8.76019 34.7398 8.76019 22.6028C8.76019 10.4658 19.8051 0.5 33.4999 0.5C47.1947 0.5 58.2396 10.4658 58.2396 22.6028ZM24.8504 23.847C25.2055 24.1651 25.6764 24.3357 26.1575 24.3357H27.952V30.733H26.1575C25.6764 30.733 25.2055 30.9036 24.8504 31.2216C24.4935 31.5412 24.2807 31.9873 24.2807 32.4658C24.2807 32.9443 24.4935 33.3905 24.8504 33.7101C25.2055 34.0281 25.6764 34.1987 26.1575 34.1987H29.1763V35.7535C29.1763 36.232 29.3891 36.6781 29.746 36.9978C30.1011 37.3158 30.572 37.4864 31.053 37.4864C31.5341 37.4864 32.005 37.3158 32.3601 36.9978C32.717 36.6781 32.9298 36.232 32.9298 35.7535V34.1987H34.0701V35.7535C34.0701 36.232 34.2828 36.6781 34.6398 36.9978C34.9949 37.3158 35.4658 37.4864 35.9468 37.4864C36.4278 37.4864 36.8987 37.3158 37.2538 36.9978C37.6108 36.6781 37.8235 36.232 37.8235 35.7535V33.8089C38.9752 33.4372 40.0122 32.8111 40.8359 31.9809C41.7473 31.0624 42.3621 29.9292 42.6037 28.7051C42.8455 27.4804 42.7026 26.2205 42.1937 25.0677C41.7756 24.1205 41.1254 23.2794 40.3 22.6028C41.1254 21.9262 41.7756 21.0851 42.1937 20.1379C42.7026 18.9851 42.8455 17.7252 42.6037 16.5005C42.3621 15.2764 41.7473 14.1432 40.8359 13.2247C40.0122 12.3945 38.9752 11.7684 37.8235 11.3967V9.45208C37.8235 8.97357 37.6108 8.52746 37.2538 8.20782C36.8987 7.88981 36.4278 7.7192 35.9468 7.7192C35.4658 7.7192 34.9949 7.88982 34.6398 8.20782C34.2828 8.52746 34.0701 8.97357 34.0701 9.45208V11.0069H32.9298V9.45208C32.9298 8.97357 32.717 8.52746 32.3601 8.20782C32.005 7.88982 31.5341 7.7192 31.053 7.7192C30.572 7.7192 30.1011 7.88982 29.746 8.20782C29.3891 8.52746 29.1763 8.97357 29.1763 9.45208V11.0069H26.1575C25.6764 11.0069 25.2055 11.1775 24.8504 11.4955C24.4935 11.8151 24.2807 12.2612 24.2807 12.7398C24.2807 13.2183 24.4935 13.6644 24.8504 13.984C25.2055 14.302 25.6764 14.4726 26.1575 14.4726H27.952V20.8699H26.1575C25.6764 20.8699 25.2055 21.0405 24.8504 21.3585C24.4935 21.6782 24.2807 22.1243 24.2807 22.6028C24.2807 23.0813 24.4935 23.5274 24.8504 23.847Z" fill="#210CC6" stroke="#BDC90C"/>
<path d="M39.4657 27.5343C39.4647 26.5537 39.0293 25.6134 38.255 24.92C37.4806 24.2265 36.4307 23.8366 35.3356 23.8357H31.2054V31.233H35.3356C36.4307 31.2321 37.4806 30.8421 38.255 30.1487C39.0293 29.4553 39.4647 28.515 39.4657 27.5343Z" fill="#BDC90C"/>
<path d="M39.4658 17.5343C39.4649 16.5537 39.0294 15.6134 38.2551 14.92C37.4807 14.2265 36.4308 13.8366 35.3357 13.8357H31.2056V21.233H35.3357C36.4308 21.2321 37.4807 20.8421 38.2551 20.1487C39.0294 19.4553 39.4649 18.515 39.4658 17.5343Z" fill="#BDC90C"/>
</svg>
