<svg width="60" height="75" viewBox="0 0 60 75" fill="none" xmlns="http://www.w3.org/2000/svg">
<path id="Vector" d="M32.175 74.3046L45.8625 64.5515C50.2381 61.4262 53.8039 57.3004 56.263 52.5176C58.7221 47.7349 60.0033 42.4337 60 37.0554V9.10918C60.0019 8.54878 59.8782 7.99507 59.6381 7.48874C59.398 6.98241 59.0476 6.53632 58.6125 6.18327M32.175 74.3046L31.5949 73.4901L45.2813 63.7378M32.175 74.3046C31.5399 74.7569 30.7796 75 30 75C29.2204 75 28.4601 74.7569 27.825 74.3046H32.175ZM45.2813 63.7378L45.8619 64.5507L45.2822 63.7371L45.2813 63.7378ZM45.2813 63.7378C49.5272 60.705 52.9874 56.7014 55.3736 52.0604C57.7599 47.4193 59.0032 42.275 59 37.0561V37.0554V9.10918V9.10579C59.0014 8.69473 58.9107 8.28859 58.7346 7.91721C58.5587 7.54625 58.302 7.21941 57.9834 6.96064M57.9834 6.96064L58.6125 6.18327M57.9834 6.96064C57.9831 6.96035 57.9827 6.96006 57.9824 6.95977L58.6125 6.18327M57.9834 6.96064C57.6639 6.70211 57.2906 6.51851 56.8909 6.42331C56.4912 6.32812 56.0753 6.32373 55.6736 6.41049L55.6677 6.41178C51.5269 7.27982 47.2524 7.29088 43.1073 6.44425C38.9626 5.59773 35.035 3.91166 31.5663 1.48983M58.6125 6.18327C58.1768 5.83074 57.6677 5.58035 57.1226 5.45052C56.5775 5.32069 56.0102 5.31472 55.4625 5.43303C51.4554 6.27308 47.3188 6.28379 43.3074 5.46448C39.296 4.64518 35.4947 3.0132 32.1375 0.669042M31.5663 1.48983C31.5666 1.49009 31.567 1.49035 31.5674 1.4906L32.1375 0.669042M31.5663 1.48983C31.5658 1.48954 31.5654 1.48924 31.565 1.48895L32.1375 0.669042M31.5663 1.48983C31.1062 1.17088 30.5597 1 30 1C29.4403 1 28.8939 1.17086 28.4338 1.48978M32.1375 0.669042C31.5098 0.233428 30.764 0 30 0C29.236 0 28.4902 0.233428 27.8625 0.669042M27.8625 0.669042L28.435 1.48895C28.4346 1.48922 28.4342 1.4895 28.4338 1.48978M27.8625 0.669042C24.5053 3.0132 20.704 4.64518 16.6926 5.46448C12.6812 6.28379 8.54463 6.27308 4.53752 5.43303M27.8625 0.669042L28.4326 1.4906C28.433 1.49033 28.4334 1.49005 28.4338 1.48978M28.4338 1.48978C24.965 3.91163 21.0374 5.59773 16.8927 6.44425C12.7476 7.29088 8.47306 7.27982 4.33234 6.41176L4.32638 6.41049C3.92475 6.32373 3.5088 6.32811 3.10909 6.42331C2.70959 6.51846 2.33645 6.70192 2.01707 6.96023M4.53752 5.43303L31.5947 73.4902C31.129 73.8218 30.5716 74 30 74C29.4284 74 28.871 73.8218 28.4053 73.4902C28.4052 73.4901 28.4052 73.4901 28.4051 73.4901L14.7187 63.7378C10.4728 60.705 7.01263 56.7014 4.62636 52.0604C2.24008 47.4193 0.996786 42.275 1.00002 37.056V37.0554L1.00003 9.10918L1.00002 9.10578C0.998619 8.69472 1.08931 8.28858 1.26542 7.91721C1.44143 7.54606 1.69827 7.21907 2.01707 6.96023M4.53752 5.43303C3.98979 5.31472 3.42251 5.32069 2.8774 5.45052C2.33228 5.58035 1.82318 5.83074 1.38752 6.18327C0.952443 6.53632 0.601975 6.98241 0.361868 7.48874C0.12176 7.99507 -0.00188321 8.54878 2.16806e-05 9.10918L4.53752 5.43303ZM2.01707 6.96023C2.01726 6.96007 2.01745 6.95992 2.01763 6.95977L1.38755 6.18331L2.01656 6.96064C2.01673 6.9605 2.0169 6.96036 2.01707 6.96023ZM42.094 59.2506L42.0933 59.2511L30.5809 67.4662L30 67.8807L29.4191 67.4662L17.9067 59.2511L17.906 59.2506C14.3753 56.7267 11.4983 53.3958 9.51439 49.5351C7.53048 45.6744 6.49703 41.3956 6.50002 37.0547M42.094 59.2506L6.50002 37.0547M42.094 59.2506C45.6247 56.7267 48.5017 53.3958 50.4856 49.5351C52.4695 45.6744 53.503 41.3956 53.5 37.0547M42.094 59.2506L53.5 37.0547M6.50002 37.0547V13.423V12.3338L7.58532 12.4267C15.2372 13.0818 22.9007 11.3059 29.4852 7.35162L30 7.04243L30.5148 7.35162C37.0993 11.3059 44.7628 13.0818 52.4147 12.4267L53.5 12.3338V13.423V37.0547M6.50002 37.0547H53.5M53.5 37.0547V37.0554H52.5L53.5 37.0547ZM32.499 49.0682L32.5495 49.2236L32.6469 49.3549C32.7226 49.457 32.786 49.5675 32.8359 49.684C32.8415 49.8251 32.8389 49.9665 32.828 50.1073L32.8251 50.1449L32.825 50.1826C32.8243 50.5514 32.7495 50.9164 32.605 51.2557L32.6021 51.2624L32.5994 51.2691C32.4679 51.5906 32.2768 51.8843 32.0362 52.1346C31.762 52.3898 31.4482 52.5987 31.107 52.7534C30.4397 53.0209 29.6939 53.0163 29.0295 52.7403C28.3601 52.4621 27.8274 51.9307 27.5475 51.2616L27.5409 51.2458L27.5338 51.2303C27.3871 50.9108 27.3156 50.5619 27.3247 50.2104L27.326 50.1588L27.322 50.1073C27.3088 49.9366 27.3077 49.7652 27.3188 49.5943C27.3452 49.4553 27.3897 49.3203 27.4511 49.1928L27.4803 49.1321L27.501 49.0682C27.5403 48.9474 27.6001 48.8343 27.6779 48.734L27.7217 48.6774L27.7571 48.6152C27.8243 48.4969 27.9098 48.39 28.0104 48.2985L28.0295 48.2811L28.0476 48.2628C28.3033 48.005 28.6074 47.8003 28.9425 47.6607C29.2776 47.521 29.637 47.4491 30 47.4491C30.363 47.4491 30.7224 47.521 31.0575 47.6607C31.3774 47.794 31.6692 47.9866 31.9174 48.2282L32.326 48.7391C32.4019 48.8381 32.4604 48.9494 32.499 49.0682ZM28.0556 21.9058C28.5713 21.3899 29.2708 21.1001 30 21.1001C30.7292 21.1001 31.4287 21.3899 31.9444 21.9058C32.4602 22.4217 32.75 23.1215 32.75 23.8513V35.1048C32.75 35.8346 32.4602 36.5344 31.9444 37.0503C31.4287 37.5662 30.7292 37.856 30 37.856C29.2708 37.856 28.5713 37.5662 28.0556 37.0503C27.5398 36.5344 27.25 35.8346 27.25 35.1048V23.8513C27.25 23.1215 27.5398 22.4217 28.0556 21.9058Z" fill="#210CC6" stroke="#BDC90C" stroke-width="2"/>
</svg>
